<svg xmlns="http://www.w3.org/2000/svg" width="390.6" height="361.7" viewBox="0 0 390.6 361.7"><title>tc-logo</title><g id="Layer_2" data-name="Layer 2"><g id="light"><g id="Leaf_LL" data-name="Leaf LL"><path d="M143.5,280.6,8.1,138.7,60,149.4a19,19,0,0,0,4.1.4h2.6a4.7,4.7,0,0,0,3.4-1.3l.5-.4a6.8,6.8,0,0,0,2.1-3.4L80,119.5,122.8,169l6.1,3.9a9.8,9.8,0,0,0,3.6,1.3h.9l46.2,106.3H146.2" fill="#e02e26"/></g><g id="Leaf_DL" data-name="Leaf DL"><path d="M0,222.8l22.8-11a2.3,2.3,0,0,0,1.2-1v-.2a7.3,7.3,0,0,0,1.4-3.7v-1.1a3.4,3.4,0,0,0-.1-1L8.1,138.5,143.7,280.6H68.1Z" fill="#b42225"/></g><g id="Leaf_DM" data-name="Leaf DM"><path d="M133.4,174.3l.3-.3a7.9,7.9,0,0,0,2.4-3.5l.9-2.1a5.8,5.8,0,0,0,.3-1.9v-2.4L118.8,55.9l20.4,11.6,7.6,4a13.3,13.3,0,0,0,5.2,1.3h0a5.3,5.3,0,0,0,2.5-.5h.3a10.1,10.1,0,0,0,2.3-1.2h.2a16.1,16.1,0,0,0,5-5.7l2.2-4.3L195,0l.9,280.6H179.6Z" fill="#b42225"/></g><path d="M390.6,223l-67.9,57.6H255.8L382.6,138.7l-16.4,61.6a14.2,14.2,0,0,0-.3,5.8v1.2l.2.4a10.6,10.6,0,0,0,3.9,5.2l2.3,1.5Z" fill="#b42225"/><path d="M382.6,138.7,255.8,280.6H195.9L194.9,0l34.8,68.1a8.5,8.5,0,0,0,2.4,2.6l.4.3a8.3,8.3,0,0,0,5.5,1.4l3.6-.4a12.6,12.6,0,0,0,5.1-1.5l25.6-13.8-19,104.6a12.7,12.7,0,0,0-.1,2l.4,4.8a7.3,7.3,0,0,0,1.8,4l.5.5a5.2,5.2,0,0,0,2.5,1.4h1.4a8.7,8.7,0,0,0,5.4-1.9L269,169a3,3,0,0,0,.8-.8l41.6-48.9,6,22.7a15.6,15.6,0,0,0,3.4,6.5,4.6,4.6,0,0,0,3.2,1.7l3.4.2a7.8,7.8,0,0,0,2.6-.2Z" fill="#e02e26"/><rect x="193.8" y="159.1" width="3.6" height="127.89" fill="#fff"/><path d="M195.6,160.9a30.5,30.5,0,1,1,30.5-30.5A30.6,30.6,0,0,1,195.6,160.9Zm0-57.4a26.9,26.9,0,1,0,26.9,26.9A26.8,26.8,0,0,0,195.6,103.5Z" fill="#fff"/><rect x="101.3" y="253.7" width="3.6" height="26.92" fill="#fff"/><path d="M103.1,255.5A30.5,30.5,0,1,1,133.6,225,30.6,30.6,0,0,1,103.1,255.5Zm0-57.4A26.9,26.9,0,1,0,130,225,27,27,0,0,0,103.1,198.1Z" fill="#fff"/><rect x="285.6" y="238.2" width="3.6" height="42.4" fill="#fff"/><path d="M287.5,240a30.5,30.5,0,1,1,30.4-30.5A30.5,30.5,0,0,1,287.5,240Zm0-57.3a26.9,26.9,0,1,0,26.8,26.8A26.8,26.8,0,0,0,287.5,182.7Z" fill="#fff"/><path d="M73.8,289.9A18.5,18.5,0,0,1,86,285.7a18.3,18.3,0,0,1,12.2,4.2,13.2,13.2,0,0,1,4.9,10.5,12.6,12.6,0,0,1-4.3,9.6l3.2,3.3-3.9,2.9-3.3-3.4A17.7,17.7,0,0,1,86,315a18.5,18.5,0,0,1-12.2-4.2,13.6,13.6,0,0,1,0-20.9Zm4.1,17.6a12,12,0,0,0,8.1,2.9,11.4,11.4,0,0,0,5.2-1.2l-4.6-4.7,3.9-2.9,4.6,4.8a8.8,8.8,0,0,0,2.3-6,9.7,9.7,0,0,0-3.3-7.2,12.8,12.8,0,0,0-16.2,0,9.4,9.4,0,0,0-3.3,7.2A9.1,9.1,0,0,0,77.9,307.5Z" fill="#b42225"/><path d="M108.2,286.2h5.9v16.9c0,4.9,2.7,7.3,7.3,7.3s7.3-2.4,7.3-7.3V286.2h5.8v17.5c0,3.6-1.2,6.4-3.7,8.3a14.1,14.1,0,0,1-9.4,3,14.6,14.6,0,0,1-9.5-3,10.1,10.1,0,0,1-3.7-8.3Z" fill="#b42225"/><path d="M141.6,314.5V286.2h5.8v28.3Z" fill="#b42225"/><path d="M154.8,314.5V286.2h11.6c5.3,0,9.5,1.3,12.5,3.9a13.1,13.1,0,0,1,4.5,10.3,12.6,12.6,0,0,1-4.5,10.2c-2.9,2.6-7.1,3.9-12.5,3.9Zm5.8-4.6H166c8.1,0,11.6-3.7,11.6-9.5s-3.5-9.6-11.6-9.6h-5.4Z" fill="#b42225"/><path d="M188.9,314.5V286.2h11.6c5.3,0,9.5,1.3,12.5,3.9a13.1,13.1,0,0,1,4.5,10.3,12.6,12.6,0,0,1-4.5,10.2c-3,2.6-7.1,3.9-12.5,3.9Zm5.8-4.6h5.4c8,0,11.6-3.7,11.6-9.5s-3.5-9.6-11.7-9.6h-5.3Z" fill="#b42225"/><path d="M223.1,314.5V286.2H229v28.3Z" fill="#b42225"/><path d="M242.5,314.5V290.8h-8.8v-4.6h23.4v4.6h-8.8v23.7Z" fill="#b42225"/><path d="M288.6,290.8l-3.9,3a11.8,11.8,0,0,0-8.9-3.5,12.3,12.3,0,0,0-8.2,2.9,9.7,9.7,0,0,0,0,14.4,13.4,13.4,0,0,0,17.2-.7l3.9,2.9a17.8,17.8,0,0,1-12.9,5.2,18.7,18.7,0,0,1-12.2-4.1,13.4,13.4,0,0,1-5-10.5,13.3,13.3,0,0,1,5-10.5,18.3,18.3,0,0,1,12.2-4.2A17.1,17.1,0,0,1,288.6,290.8Z" fill="#b42225"/><path d="M293.4,314.5V286.2h5.8v11.1h15.6V286.2h5.8v28.3h-5.8V301.8H299.2v12.7Z" fill="#b42225"/><path d="M107.5,326.2l-5,4.4a15.1,15.1,0,0,0-21.7-.8,15.5,15.5,0,0,0,.1,21.1A13.9,13.9,0,0,0,91.3,355a14.5,14.5,0,0,0,11.4-5.2l4.9,4.3a21.1,21.1,0,0,1-16.3,7.6,22.1,22.1,0,0,1-15.6-6,21.9,21.9,0,0,1,0-30.7,21.4,21.4,0,0,1,15.5-6.2A20.9,20.9,0,0,1,107.5,326.2Z" fill="#fff"/><path d="M110.5,360.9l17.1-41.5h6.2l17.3,41.4h-7.8l-3.4-8.2H121.6l-3.3,8.3Zm13.4-14.4h13.7l-6.9-16.9Z" fill="#fff"/><path d="M157,360.8V319.3h6.5L185.3,348V319.2h7.2v41.5h-6.1l-22.3-29.3v29.4Z" fill="#fff"/><path d="M198.4,360.7l17-41.5h6.3L239,360.5h-7.8l-3.4-8.3H209.5l-3.3,8.2Zm13.4-14.5h13.7l-6.9-16.9Z" fill="#fff"/><path d="M244.9,360.5V319.1h14.7q10.2,0,15.9,5.7c3.9,3.8,5.8,8.8,5.8,15.1s-1.9,11.2-5.6,15-9.1,5.7-15.9,5.7Zm7.4-6.7h6.8c10.3-.1,14.7-5.5,14.7-14s-4.5-14.1-14.8-14.1h-6.8Z" fill="#fff"/><path d="M282.5,360.4l17.1-41.5h6.3l17.3,41.4h-7.8L312,352H293.7l-3.4,8.3ZM296,346h13.7l-6.9-16.8Z" fill="#fff"/></g></g></svg>