<svg xmlns="http://www.w3.org/2000/svg" width="202.7" height="60.4" viewBox="0 0 202.7 60.4"><title>tt-logo</title><g id="Layer_2" data-name="Layer 2"><g id="Layer_1-2" data-name="Layer 1"><path d="M51.7,46.2,27.7,60a2.3,2.3,0,0,1-2.5,0L1.3,46.2A2.6,2.6,0,0,1,0,44V16.3a2.3,2.3,0,0,1,1.3-2.1L25.2.3a2.8,2.8,0,0,1,2.5,0l24,13.9a2.2,2.2,0,0,1,1.2,2.1V44A2.5,2.5,0,0,1,51.7,46.2Zm-9.8-3.1V17.2a2.5,2.5,0,0,0-2.5-2.5H13.5A2.5,2.5,0,0,0,11,17.2V43.1a2.5,2.5,0,0,0,2.5,2.5H39.4A2.5,2.5,0,0,0,41.9,43.1Z" fill="#00953b"/><path d="M29.8,40,37,27.5a3.8,3.8,0,0,0-3.3-5.8H19.3a3.9,3.9,0,0,0-3.4,5.8L23.1,40A3.9,3.9,0,0,0,29.8,40Z" fill="#666766"/><path d="M86,23.2H78.8V42.9H72.9V23.2H65.8V18.7H86Z" fill="#666766"/><path d="M84.1,33.8a10.6,10.6,0,0,1,1-4.8,7.2,7.2,0,0,1,3-3.2,8.8,8.8,0,0,1,4.6-1.2,8.5,8.5,0,0,1,6.4,2.5,9.5,9.5,0,0,1,2.3,6.8v.2c0,2.8-.7,5.1-2.3,6.7a8.2,8.2,0,0,1-6.3,2.5A8.6,8.6,0,0,1,86.6,41a8.8,8.8,0,0,1-2.5-6.3Zm5.6.3a6.2,6.2,0,0,0,.8,3.7A2.6,2.6,0,0,0,92.8,39c2,0,3-1.6,3-4.7v-.5c0-3.2-1-4.9-3.1-4.9s-2.9,1.4-3,4.2Z" fill="#666766"/><path d="M120.6,34.1a10.7,10.7,0,0,1-1.9,6.7,6.1,6.1,0,0,1-5.1,2.5,5,5,0,0,1-4-1.8v8.4h-5.7V25h5.3l.2,1.6a5,5,0,0,1,4.2-2,6.1,6.1,0,0,1,5.2,2.5,11.1,11.1,0,0,1,1.8,6.7Zm-5.6-.4c0-3.2-.9-4.8-2.8-4.8a2.5,2.5,0,0,0-2.6,1.5v7.1a2.5,2.5,0,0,0,2.6,1.5c1.8,0,2.8-1.6,2.8-4.7Z" fill="#666766"/><path d="M141.1,21.3h-7.8V42.9h-3.2V21.3h-7.8V18.7h18.8Z" fill="#666766"/><path d="M153.4,42.9a4.8,4.8,0,0,1-.4-1.8,7.4,7.4,0,0,1-5.2,2.2,6.3,6.3,0,0,1-4.3-1.5,4.7,4.7,0,0,1-1.7-3.8,5.1,5.1,0,0,1,2.1-4.4,10.2,10.2,0,0,1,6-1.6h3V30.6a3,3,0,0,0-1-2.5,3.4,3.4,0,0,0-2.8-1,5.1,5.1,0,0,0-2.8.8,2.7,2.7,0,0,0-1.1,2h-3.1a4.7,4.7,0,0,1,1-2.6,5.7,5.7,0,0,1,2.6-1.9,8.6,8.6,0,0,1,3.6-.8,6.9,6.9,0,0,1,4.9,1.6,5.9,5.9,0,0,1,1.8,4.3v8.2a10.9,10.9,0,0,0,.6,4v.2Zm-5.1-2.3a5,5,0,0,0,2.7-.7,4.6,4.6,0,0,0,1.9-2V34.2h-2.4q-5.7,0-5.7,3.3a3.1,3.1,0,0,0,1,2.3A4.1,4.1,0,0,0,148.3,40.6Z" fill="#666766"/><path d="M176,34.1a11.3,11.3,0,0,1-1.8,6.7,6.3,6.3,0,0,1-5.1,2.5,6.3,6.3,0,0,1-5.3-2.4l-.2,2h-2.8V17.4h3.1v9.5a6.7,6.7,0,0,1,10.3.2,11.2,11.2,0,0,1,1.8,6.8Zm-3-.3a8.7,8.7,0,0,0-1.2-4.9,4.3,4.3,0,0,0-3.5-1.7,4.5,4.5,0,0,0-4.4,2.9v7.7a4.6,4.6,0,0,0,4.4,2.9,4,4,0,0,0,3.4-1.7A8.5,8.5,0,0,0,173,33.8Z" fill="#666766"/><path d="M183.3,42.9h-3.1V17.4h3.1Z" fill="#666766"/><path d="M195.7,43.3a7.8,7.8,0,0,1-6-2.4,9.2,9.2,0,0,1-2.3-6.5v-.5a10.6,10.6,0,0,1,1-4.8,8.5,8.5,0,0,1,2.9-3.3,7,7,0,0,1,4-1.2,6.8,6.8,0,0,1,5.4,2.3,10.3,10.3,0,0,1,2,6.7v1.2H190.5a6.1,6.1,0,0,0,1.5,4.3,5,5,0,0,0,3.8,1.7,6.1,6.1,0,0,0,2.8-.7,6.7,6.7,0,0,0,2-1.8l1.8,1.5A7.5,7.5,0,0,1,195.7,43.3Zm-.4-16.2a4.3,4.3,0,0,0-3.2,1.4,6.9,6.9,0,0,0-1.5,3.8h9v-.2a5.9,5.9,0,0,0-1.3-3.7A3.8,3.8,0,0,0,195.3,27.1Z" fill="#666766"/></g></g></svg>